<svg width="283" height="84" viewBox="0 0 283 84" fill="none" xmlns="http://www.w3.org/2000/svg">
<path d="M230.708 22.1679L230.605 11.9184L240.854 11.8153L240.751 1.56585L261.25 1.35976L261.971 73.1061L241.472 73.3122L241.06 32.3143L220.561 32.5204L220.458 22.2709L230.708 22.1679Z" fill="#B4FF39"/>
<path d="M62.08 7.10595L70.272 15.298V48.45L66.176 52.546V57.538C66.176 57.538 51.2 72.386 51.456 72.002H7.296V62.018L15.232 54.082V38.594L7.296 46.402V0.961952H55.936L62.08 7.10595ZM56.192 52.418V20.1619L50.176 14.2739H27.008L21.888 19.394V31.938L29.952 23.746V39.3619L21.888 47.426V58.434H50.176L56.192 52.418ZM132.981 46.53L142.965 72.002H126.197L121.333 58.306H92.789L87.797 72.002H77.429H71.797L99.445 1.21795H115.189L124.533 24.8979L120.949 28.61L128.757 50.626L132.981 46.53ZM97.781 44.354H113.397L111.221 38.21L113.397 36.162L106.997 18.3699L97.781 44.354ZM181.565 0.961952H204.221L180.285 37.3139L180.029 37.57L179.389 40.258V53.57L174.909 57.794V65.218L179.389 60.738V72.002H161.597L164.413 69.186V41.41L161.341 36.802L158.269 39.874L157.117 38.21L150.589 28.354H150.717H150.589L153.789 25.1539V25.282L153.917 25.1539L140.093 4.28995L138.173 1.34595L137.917 0.961952H156.349L164.925 14.146L159.677 19.394L164.541 26.818L169.789 18.882L181.565 0.961952Z" fill="white"/>
</svg>
