<svg width="283" height="84" viewBox="0 0 283 84" fill="none" xmlns="http://www.w3.org/2000/svg">
<path d="M241.266 52.8113L241.369 63.0608L261.868 62.8547L261.662 42.3557L241.163 42.5618L241.06 32.3123L261.559 32.1063L261.353 11.6073L240.854 11.8134L240.957 22.0629L220.458 22.269L220.355 12.0195L230.605 11.9164L230.501 1.66694L271.499 1.25476L271.602 11.5042L281.852 11.4012L282.058 31.9002L271.809 32.0032L271.912 42.2527L282.161 42.1496L282.367 62.6486L272.118 62.7517L272.221 73.0011L231.223 73.4133L231.12 63.1638L220.87 63.2669L220.767 53.0174L241.266 52.8113Z" fill="#B4FF39"/>
<path d="M62.08 7.104L70.272 15.296V48.448L66.176 52.544V57.536C66.176 57.536 51.2 72.384 51.456 72H7.296V62.016L15.232 54.08V38.592L7.296 46.4V0.959999H55.936L62.08 7.104ZM56.192 52.416V20.16L50.176 14.272H27.008L21.888 19.392V31.936L29.952 23.744V39.36L21.888 47.424V58.432H50.176L56.192 52.416ZM132.981 46.528L142.965 72H126.197L121.333 58.304H92.789L87.797 72H77.429H71.797L99.445 1.216H115.189L124.533 24.896L120.949 28.608L128.757 50.624L132.981 46.528ZM97.781 44.352H113.397L111.221 38.208L113.397 36.16L106.997 18.368L97.781 44.352ZM181.565 0.959999H204.221L180.285 37.312L180.029 37.568L179.389 40.256V53.568L174.909 57.792V65.216L179.389 60.736V72H161.597L164.413 69.184V41.408L161.341 36.8L158.269 39.872L157.117 38.208L150.589 28.352H150.717H150.589L153.789 25.152V25.28L153.917 25.152L140.093 4.28799L138.173 1.34399L137.917 0.959999H156.349L164.925 14.144L159.677 19.392L164.541 26.816L169.789 18.88L181.565 0.959999Z" fill="white"/>
</svg>
