<svg width="360" height="228" viewBox="0 0 360 228" fill="none" xmlns="http://www.w3.org/2000/svg">
<path d="M1.42049 41.4956H0V22.72L23.5172 0H250.324L255.374 5.20667H359.86V23.9822H358.439V6.62667H254.743L249.692 1.42H23.9907L1.42049 23.3511V41.4956Z" fill="#B4FF39"/>
<path d="M336.343 226.496H109.378L104.486 221.289H0V202.513H1.42049V219.869H105.117L110.01 225.076H335.712L358.439 203.144V185H359.86V203.776L336.343 226.496Z" fill="#B4FF39"/>
<path d="M334.07 222.84H111.683L109 220H337.7L334.07 222.84Z" fill="#446211"/>
<path d="M25.5692 3.78662H248.43L250.955 6.62663H22.5703L25.5692 3.78662Z" fill="#446211"/>
<path d="M94.2265 227.787L90.4385 224H87.124L91.0698 227.787H94.2265ZM88.3867 227.787L84.4408 224H81.2842L85.0722 227.787H88.3867ZM82.7047 227.787L78.7588 224H75.6022L79.3901 227.787H82.7047ZM100.224 227.787L96.2783 224H93.1217L96.9097 227.787H100.224ZM106.064 227.787L102.276 224H98.9615L102.907 227.787H106.064ZM59.5032 227.787L55.5573 224H52.4007L56.3465 227.787H59.5032ZM53.6633 227.787L49.7175 224H46.5608L50.3488 227.787H53.6633ZM71.1828 227.787L67.237 224H64.0803L68.0262 227.787H71.1828ZM76.8648 227.787L73.0768 224H69.7623L73.7082 227.787H76.8648ZM65.1851 227.787L61.3972 224H58.0826L62.0285 227.787H65.1851ZM36.1438 227.787L32.198 224H29.0413L32.8293 227.787H36.1438ZM24.4642 227.787L20.6762 224H17.3617L21.3075 227.787H24.4642ZM30.304 227.787L26.3582 224H23.2015L26.9895 227.787H30.304ZM41.9837 227.787L38.1957 224H34.8812L38.827 227.787H41.9837ZM47.8235 227.787L43.8776 224H40.721L44.509 227.787H47.8235ZM18.7822 227.787L14.8363 224H11.6797L15.6255 227.787H18.7822ZM7.1025 227.787L3.15667 224H0L3.78799 227.787H7.1025ZM12.9424 227.787L9.15431 224H5.83985L9.78569 227.787H12.9424Z" fill="#446211"/>
<path d="M346.918 4.1021L343.13 0.31543H339.815L343.761 4.1021H346.918ZM341.078 4.1021L337.132 0.31543H333.976L337.764 4.1021H341.078ZM335.238 4.1021L331.45 0.31543H328.136L332.082 4.1021H335.238ZM352.758 4.1021L348.812 0.31543H345.655L349.443 4.1021H352.758ZM358.598 4.1021L354.81 0.31543H351.495L355.441 4.1021H358.598ZM312.037 4.1021L308.091 0.31543H304.934L308.88 4.1021H312.037ZM306.197 4.1021L302.251 0.31543H299.094L302.882 4.1021H306.197ZM323.716 4.1021L319.771 0.31543H316.614L320.402 4.1021H323.716ZM329.556 4.1021L325.768 0.31543H322.454L326.4 4.1021H329.556ZM317.877 4.1021L314.089 0.31543H310.774L314.72 4.1021H317.877ZM288.835 4.1021L284.889 0.31543H281.733L285.521 4.1021H288.835ZM277.156 4.1021L273.368 0.31543H270.053L273.999 4.1021H277.156ZM282.995 4.1021L279.05 0.31543H275.893L279.681 4.1021H282.995ZM294.675 4.1021L290.887 0.31543H287.573L291.518 4.1021H294.675ZM300.515 4.1021L296.569 0.31543H293.412L297.2 4.1021H300.515ZM271.474 4.1021L267.528 0.31543H264.371L268.317 4.1021H271.474ZM259.794 4.1021L255.848 0.31543H252.691L256.479 4.1021H259.794ZM265.634 4.1021L261.846 0.31543H258.531L262.477 4.1021H265.634Z" fill="#446211"/>
<path opacity="0.2" d="M326.462 211L350 186.103V15H175V211H326.462Z" fill="#446211"/>
<mask id="mask0_1091_630" style="mask-type:alpha" maskUnits="userSpaceOnUse" x="12" y="15" width="157" height="196">
<path d="M30 15L12 34V211H168.8V15H30Z" fill="#847E16"/>
</mask>
<g mask="url(#mask0_1091_630)">
<rect x="8.85425" y="1.78931" width="158.79" height="214.834" fill="white"/>
</g>
<path d="M359 208V224.567H342.5L359 208Z" fill="#446211"/>
</svg>
