<svg width="361" height="76" viewBox="0 0 361 76" fill="none" xmlns="http://www.w3.org/2000/svg">
<path d="M1.58358 41.7001H0.163086V22.9246L23.6802 0.20459H250.487L255.537 5.41126H360.023V24.1868H358.603V6.83126H254.906L249.855 1.62459H24.1538L1.58358 23.5557V41.7001Z" fill="#B4FF39"/>
<path d="M336.506 75.9379H109.542L104.649 70.7313H0.163086V51.9557H1.58358V69.3113H105.28L110.173 74.5179H335.875L358.603 52.5868V34.4424H360.023V53.2179L336.506 75.9379Z" fill="#B4FF39"/>
<path d="M333.981 72.151H111.594L108.911 69.311H337.611L333.981 72.151Z" fill="#6B6363"/>
<path d="M25.7323 3.99121H248.593L251.118 6.83122H22.7334L25.7323 3.99121Z" fill="#6B6363"/>
<path d="M95.1792 75.6221L91.3911 71.8354H88.0767L92.0225 75.6221H95.1792ZM89.3393 75.6221L85.3935 71.8354H82.2368L86.0248 75.6221H89.3393ZM83.6573 75.6221L79.7115 71.8354H76.5548L80.3428 75.6221H83.6573ZM101.177 75.6221L97.231 71.8354H94.0743L97.8623 75.6221H101.177ZM107.017 75.6221L103.229 71.8354H99.9142L103.86 75.6221H107.017ZM60.4558 75.6221L56.51 71.8354H53.3533L57.2992 75.6221H60.4558ZM54.616 75.6221L50.6701 71.8354H47.5135L51.3015 75.6221H54.616ZM72.1355 75.6221L68.1897 71.8354H65.033L68.9788 75.6221H72.1355ZM77.8175 75.6221L74.0295 71.8354H70.715L74.6608 75.6221H77.8175ZM66.1378 75.6221L62.3498 71.8354H59.0353L62.9811 75.6221H66.1378ZM37.0965 75.6221L33.1506 71.8354H29.994L33.782 75.6221H37.0965ZM25.4168 75.6221L21.6288 71.8354H18.3143L22.2601 75.6221H25.4168ZM31.2567 75.6221L27.3108 71.8354H24.1542L27.9421 75.6221H31.2567ZM42.9363 75.6221L39.1483 71.8354H35.8338L39.7796 75.6221H42.9363ZM48.7761 75.6221L44.8303 71.8354H41.6736L45.4617 75.6221H48.7761ZM19.7348 75.6221L15.789 71.8354H12.6323L16.5781 75.6221H19.7348ZM8.05514 75.6221L4.1093 71.8354H0.952637L4.74063 75.6221H8.05514ZM13.895 75.6221L10.107 71.8354H6.79249L10.7383 75.6221H13.895Z" fill="#B4FF39"/>
<path d="M347.081 4.30669L343.293 0.52002H339.978L343.924 4.30669H347.081ZM341.241 4.30669L337.295 0.52002H334.139L337.927 4.30669H341.241ZM335.401 4.30669L331.613 0.52002H328.299L332.245 4.30669H335.401ZM352.921 4.30669L348.975 0.52002H345.818L349.606 4.30669H352.921ZM358.761 4.30669L354.973 0.52002H351.658L355.604 4.30669H358.761ZM312.2 4.30669L308.254 0.52002H305.097L309.043 4.30669H312.2ZM306.36 4.30669L302.414 0.52002H299.257L303.046 4.30669H306.36ZM323.879 4.30669L319.934 0.52002H316.777L320.565 4.30669H323.879ZM329.719 4.30669L325.931 0.52002H322.617L326.563 4.30669H329.719ZM318.04 4.30669L314.252 0.52002H310.937L314.883 4.30669H318.04ZM288.998 4.30669L285.052 0.52002H281.896L285.684 4.30669H288.998ZM277.319 4.30669L273.531 0.52002H270.216L274.162 4.30669H277.319ZM283.158 4.30669L279.213 0.52002H276.056L279.844 4.30669H283.158ZM294.838 4.30669L291.05 0.52002H287.736L291.681 4.30669H294.838ZM300.678 4.30669L296.732 0.52002H293.576L297.363 4.30669H300.678ZM271.637 4.30669L267.691 0.52002H264.534L268.48 4.30669H271.637ZM259.957 4.30669L256.011 0.52002H252.854L256.642 4.30669H259.957ZM265.797 4.30669L262.009 0.52002H258.694L262.64 4.30669H265.797Z" fill="#B4FF39"/>
</svg>
